<?xml version="1.0" encoding="iso-8859-1"?>
<!-- Generator: Adobe Illustrator 16.0.0, SVG Export Plug-In . SVG Version: 6.00 Build 0)  -->
<!DOCTYPE svg PUBLIC "-//W3C//DTD SVG 1.1//EN" "http://www.w3.org/Graphics/SVG/1.1/DTD/svg11.dtd">
<svg xmlns="http://www.w3.org/2000/svg" viewBox="0 0 58 58"><defs><linearGradient x1="-580.923%" y1="-579.361%" x2="175.364%" y2="175.054%" id="a"><stop stop-color="#FFD521" offset="0%"/><stop stop-color="#FFD521" offset="5%"/><stop stop-color="#F50000" offset="50.112%"/><stop stop-color="#B900B4" offset="95%"/><stop stop-color="#B900B4" offset="95.008%"/><stop stop-color="#B900B4" offset="100%"/></linearGradient><linearGradient x1=".902%" y1=".909%" x2="91.746%" y2="91.753%" id="b"><stop stop-color="#FFD521" offset="0%"/><stop stop-color="#FFD521" offset="5%"/><stop stop-color="#F50000" offset="50.112%"/><stop stop-color="#B900B4" offset="95%"/><stop stop-color="#B900B4" offset="95.008%"/><stop stop-color="#B900B4" offset="100%"/></linearGradient><linearGradient x1="-45.531%" y1="-45.602%" x2="131.225%" y2="131.281%" id="c"><stop stop-color="#FFD521" offset="0%"/><stop stop-color="#FFD521" offset="5%"/><stop stop-color="#F50000" offset="50.112%"/><stop stop-color="#B900B4" offset="95%"/><stop stop-color="#B900B4" offset="95.008%"/><stop stop-color="#B900B4" offset="100%"/></linearGradient></defs><g fill-rule="nonzero" fill="none"><path d="M44.62 12.572a3.24 3.24 0 11-6.481 0 3.24 3.24 0 013.241-3.235 3.239 3.239 0 013.24 3.235" fill="url(#a)" transform="matrix(1 0 0 -1 2 27.15)"/><path d="M48.937 16.079c-.12-2.631-.56-4.06-.925-5.01-.49-1.258-1.076-2.158-2.025-3.102-.939-.944-1.839-1.528-3.098-2.014-.949-.37-2.384-.812-5.014-.937-2.844-.125-3.687-.152-10.899-.152-7.205 0-8.055.027-10.899.152-2.63.125-4.058.567-5.008.937-1.265.486-2.158 1.07-3.102 2.014-.951.944-1.536 1.844-2.02 3.102-.366.95-.812 2.379-.926 5.01-.138 2.844-.164 3.7-.164 10.897 0 7.212.026 8.061.164 10.905.114 2.631.56 4.059.926 5.016.484 1.258 1.069 2.152 2.02 3.096.944.943 1.837 1.528 3.102 2.019.95.372 2.378.807 5.008.932 2.844.125 3.694.157 10.899.157 7.212 0 8.055-.032 10.899-.157 2.63-.125 4.065-.56 5.014-.932 1.259-.49 2.159-1.076 3.098-2.019.949-.944 1.534-1.838 2.025-3.096.365-.957.805-2.385.925-5.016.132-2.844.164-3.693.164-10.905 0-7.197-.032-8.053-.164-10.897zm4.858 22.024c-.132 2.874-.586 4.838-1.259 6.549-.685 1.775-1.604 3.279-3.108 4.783-1.497 1.497-3.001 2.416-4.776 3.109-1.717.667-3.675 1.125-6.55 1.25-2.877.14-3.795.165-11.126.165-7.324 0-8.25-.026-11.125-.164-2.87-.126-4.826-.584-6.551-1.251-1.768-.693-3.272-1.612-4.77-3.11-1.503-1.503-2.422-3.007-3.114-4.782-.667-1.71-1.12-3.675-1.259-6.55C.032 35.228 0 34.308 0 26.977c0-7.324.032-8.243.157-11.119.139-2.869.592-4.832 1.259-6.55.692-1.768 1.61-3.279 3.115-4.776C6.028 3.033 7.532 2.108 9.3 1.416 11.025.749 12.981.296 15.85.164 18.728.032 19.653 0 26.977 0c7.33 0 8.25.032 11.125.164 2.876.132 4.834.585 6.551 1.252 1.775.692 3.279 1.617 4.776 3.115 1.504 1.497 2.423 3.008 3.108 4.776.673 1.718 1.127 3.681 1.259 6.55.132 2.876.164 3.795.164 11.119 0 7.33-.032 8.25-.164 11.127z" fill="url(#b)" transform="matrix(1 0 0 -1 2 55.959)"/><path d="M26.976 17.984c-4.964 0-8.992 4.021-8.992 8.985 0 4.972 4.028 8.999 8.992 8.999 4.965 0 8.999-4.027 8.999-8.999 0-4.964-4.034-8.985-8.999-8.985zm0 22.848c-7.652 0-13.85-6.21-13.85-13.863 0-7.645 6.198-13.849 13.85-13.849 7.652 0 13.856 6.204 13.856 13.85 0 7.651-6.204 13.862-13.856 13.862z" fill="url(#c)" transform="matrix(1 0 0 -1 2 55.952)"/></g></svg>
